<svg width="13" height="14" viewBox="0 0 13 14" fill="none" xmlns="http://www.w3.org/2000/svg">
<path d="M2.88053 13.2364H0.212521V4.59092H2.88053V13.2364ZM1.54509 3.41159C0.692131 3.41159 0 2.70053 0 1.84205C0 0.983569 0.692131 0.286957 1.54509 0.286957C2.39805 0.286957 3.09018 0.983569 3.09018 1.84205C3.09018 2.70053 2.39805 3.41159 1.54509 3.41159ZM12.8662 13.2364H10.2039V9.02785C10.2039 8.02484 10.1838 6.73857 8.81677 6.73857C7.42964 6.73857 7.21711 7.82829 7.21711 8.95558V13.2364H4.55198V4.59092H7.11085V5.77025H7.14819C7.5043 5.09098 8.37449 4.37413 9.6726 4.37413C12.3722 4.37413 12.869 6.16336 12.869 8.48732V13.2364H12.8662Z" fill="#696969"/>
</svg>
