<svg width="13" height="16" viewBox="0 0 13 16" fill="none" xmlns="http://www.w3.org/2000/svg">
<path d="M7.02927 0.286957C3.76274 0.286957 0.534424 2.31513 0.534424 5.59758C0.534424 7.68506 1.79519 8.87112 2.55929 8.87112C2.87448 8.87112 3.05595 8.05274 3.05595 7.82145C3.05595 7.54569 2.3014 6.95859 2.3014 5.81107C2.3014 3.42707 4.24986 1.73692 6.77138 1.73692C8.93951 1.73692 10.5441 2.88445 10.5441 4.99268C10.5441 6.56719 9.86598 9.52049 7.6692 9.52049C6.87645 9.52049 6.19831 8.98676 6.19831 8.22175C6.19831 7.10092 7.03882 6.01566 7.03882 4.85925C7.03882 2.89631 4.04928 3.25213 4.04928 5.62426C4.04928 6.12241 4.11614 6.67393 4.35492 7.1276C3.91556 8.88891 3.01775 11.5131 3.01775 13.3278C3.01775 13.8882 3.10371 14.4397 3.16101 15.0001C3.26926 15.1128 3.21514 15.1009 3.38069 15.0446C4.9853 12.9986 4.92799 12.5983 5.65389 9.92079C6.04549 10.6146 7.05792 10.9883 7.86022 10.9883C11.2414 10.9883 12.76 7.9193 12.76 5.1528C12.76 2.20839 10.0284 0.286957 7.02927 0.286957Z" fill="#696969"/>
</svg>
