<svg width="17" height="14" viewBox="0 0 17 14" fill="none" xmlns="http://www.w3.org/2000/svg">
<path d="M15.0399 3.49415C15.0501 3.6349 15.0501 3.77568 15.0501 3.91643C15.0501 8.20944 11.7328 13.156 5.66983 13.156C3.80192 13.156 2.06673 12.6231 0.607117 11.6982C0.87251 11.7283 1.12766 11.7384 1.40327 11.7384C2.94451 11.7384 4.36331 11.2257 5.4963 10.351C4.0469 10.3208 2.83225 9.38577 2.41375 8.09886C2.61791 8.129 2.82204 8.14912 3.03641 8.14912C3.3324 8.14912 3.62843 8.10889 3.904 8.03855C2.39336 7.7369 1.26034 6.4299 1.26034 4.85144V4.81124C1.69923 5.05253 2.20963 5.20334 2.75056 5.22342C1.86254 4.64028 1.28076 3.64496 1.28076 2.51891C1.28076 1.91568 1.44405 1.36272 1.72986 0.880124C3.35279 2.85069 5.7923 4.13758 8.52776 4.27835C8.47674 4.03706 8.44611 3.78574 8.44611 3.53438C8.44611 1.74476 9.91593 0.286957 11.743 0.286957C12.6922 0.286957 13.5496 0.679059 14.1519 1.31246C14.897 1.17171 15.6114 0.90024 16.2443 0.528253C15.9993 1.28232 15.4788 1.91571 14.7949 2.31784C15.4584 2.2475 16.1014 2.06649 16.6934 1.81517C16.2444 2.45859 15.683 3.03164 15.0399 3.49415Z" fill="#696969"/>
</svg>
